<svg width="512" height="512" viewBox="0 0 512 512" fill="none" xmlns="http://www.w3.org/2000/svg">
<path d="M322 416C322 451.35 301.35 480 266 480H134C98.65 480 78 451.35 78 416M336 336C353.67 336 368 353.91 368 376C368 398.09 353.67 416 336 416H64C46.33 416 32 398.09 32 376C32 353.91 46.33 336 64 336" stroke="black" stroke-width="32" stroke-miterlimit="10" stroke-linecap="round"/>
<path d="M64 276V275.78C64 220.78 109 192 164 192H236C291 192 336 221 336 276V275.78M241 112L248.44 175.97M344 336H179.31C177.191 336.001 175.159 336.843 173.66 338.34L146.83 365.17C146.459 365.542 146.017 365.837 145.532 366.038C145.046 366.24 144.526 366.343 144 366.343C143.474 366.343 142.954 366.24 142.468 366.038C141.983 365.837 141.541 365.542 141.17 365.17L114.34 338.34C112.841 336.843 110.809 336.001 108.69 336H56C49.6348 336 43.5303 333.471 39.0294 328.971C34.5286 324.47 32 318.365 32 312C32 305.635 34.5286 299.53 39.0294 295.029C43.5303 290.529 49.6348 288 56 288H344C350.365 288 356.47 290.529 360.971 295.029C365.471 299.53 368 305.635 368 312C368 318.365 365.471 324.47 360.971 328.971C356.47 333.471 350.365 336 344 336Z" stroke="black" stroke-width="32" stroke-miterlimit="10" stroke-linecap="round"/>
<path d="M256 480H395.31C403.383 480 411.158 476.948 417.076 471.457C422.993 465.966 426.617 458.441 427.22 450.39L463 112" stroke="black" stroke-width="32" stroke-miterlimit="10" stroke-linecap="round"/>
<path d="M368 112L384 48L431 32" stroke="black" stroke-width="32" stroke-linecap="round" stroke-linejoin="round"/>
<path d="M224 112H480" stroke="black" stroke-width="32" stroke-miterlimit="10" stroke-linecap="round"/>
</svg>
